<svg width="61" height="94" viewBox="0 0 61 94" fill="none" xmlns="http://www.w3.org/2000/svg">
<path d="M5.96013 59.6303C4.62679 43.6303 4.5 9.4 12.5 1H49.5C55 12.5 56.73 43.6303 55.3967 59.6303C57.1738 58.8573 58.8802 57.9817 60.5 57V66C57.1558 68.0268 53.442 69.6017 49.5 70.7539V76.5C48.1858 77.1273 46.6655 77.6128 45 77.9787V90.5C32.2 94.9 22 92.3333 18.5 90.5V77.5894C16.1963 77.236 14.1457 76.8543 12.5 76.5V70.7189C8.43194 69.6409 4.55125 68.2249 1 66.5V65V57.5C2.59147 58.273 4.24911 58.984 5.96013 59.6303Z" fill="#C0C0C0"/>
<path d="M5.96013 59.6303C4.62679 43.6303 4.5 9.4 12.5 1H49.5C55 12.5 56.73 43.6303 55.3967 59.6303M1 66.5V65M1 66.5C18.5 75 44 76 60.5 66V57C44 67 18.5 66 1 57.5V66.5ZM12.5 70.7189V76.5C14.1457 76.8543 16.1963 77.236 18.5 77.5894M49.5 70.7539V76.5C48.1858 77.1273 46.6655 77.6128 45 77.9787M18.5 77.5894V90.5C22 92.3333 32.2 94.9 45 90.5V77.9787M18.5 77.5894C26.3952 78.8004 37.2638 79.6786 45 77.9787" stroke="black"/>
</svg>
