<svg width="61" height="105" viewBox="0 0 61 105" fill="none" xmlns="http://www.w3.org/2000/svg">
<path d="M61 9C61 12.3137 50.7479 17 32.8067 17C7.17647 17 0 10.3137 0 7C0 3.68629 15.5374 0 32.8067 0C50.0761 0 61 5.68629 61 9Z" fill="black"/>
<path d="M1.00001 14L1 8C2.5 10 7.66414 12.9662 12.5 14.0106C22.2508 16.1162 35.5825 17.1882 49.5 14.0688C53.3099 13.2149 57 11.5 60.5 9V15C59.0663 16.0241 57.6008 16.9164 56.1081 17.6717V21.5L55.8905 25.5L55.6684 29.5817L55.4463 33.663L55.2243 37.744L55.0022 41.8246L54.8022 45.5L54.5846 49.5L54.3669 53.5L54.1493 57.5L53.9452 61.25L53.714 65.5L53.4963 69.5L53.2787 73.5L53.061 77.5L52.8434 81.5L52.6257 85.5L52 97C34.8 109.4 19.8333 102.167 14.5 97L13.7915 89.5L13.4136 85.5L13.0357 81.5L12.6578 77.5L12.2799 73.5L11.902 69.5L11.5241 65.5L11.1226 61.25L10.7683 57.5L10.3905 53.5L10.0126 49.5L9.63468 45.5L9.25679 41.5L8.8789 37.5L8.50101 33.5L8.12312 29.5L7.74523 25.5L6.95181 18.0937C4.20606 16.8083 1.91754 15.2234 1.00001 14Z" fill="#666668"/>
<path d="M6.95181 18.0937L7.74523 25.5M56.1081 17.6717V21.5M7.74523 25.5L14.5 97C19.8333 102.167 34.8 109.4 52 97L56.1081 21.5M7.74523 25.5C12.5689 28.3333 28.9946 31.5 56.1081 21.5M8.12312 29.5C12.9468 32.3333 28.777 35.5 55.8905 25.5M8.50101 33.5C13.3247 36.3333 28.777 39.5 55.8905 29.5M8.8789 37.5C13.7026 40.3333 28.777 43.5 55.8905 33.5M9.25679 41.5C14.0805 44.3333 28.777 47.5 55.8905 37.5M9.63468 45.5C14.4584 48.3333 28.777 51.5 55.8905 41.5M10.0126 49.5C14.8362 52.3333 27.6887 55.5 54.8022 45.5M10.3905 53.5C15.2141 56.3333 27.4711 59.5 54.5846 49.5M10.7683 57.5C15.592 60.3333 27.2534 63.5 54.3669 53.5M11.1226 61.25C15.9463 64.0833 27.0358 67.5 54.1493 57.5M11.5241 65.5C16.3478 68.3333 26.8317 71.25 53.9452 61.25M11.902 69.5C16.7257 72.3333 26.6005 75.5 53.714 65.5M12.2799 73.5C17.1036 76.3333 26.3828 79.5 53.4963 69.5M12.6578 77.5C17.4815 80.3333 26.1652 83.5 53.2787 73.5M13.0357 81.5C17.8594 84.3333 25.9475 87.5 53.061 77.5M13.4136 85.5C18.2372 88.3333 25.7299 91.5 52.8434 81.5M13.7915 89.5C18.6151 92.3333 25.5122 95.5 52.6257 85.5M1 8L1.00001 14C2.50001 16 7.66414 18.9662 12.5 20.0106C22.2508 22.1162 35.5825 23.1882 49.5 20.0688C53.3099 19.2149 57 17.5 60.5 15V9C57 11.5 53.3099 13.2149 49.5 14.0688C35.5825 17.1882 22.2508 16.1162 12.5 14.0106C7.66414 12.9662 2.5 10 1 8Z" stroke="black"/>
</svg>
