<svg width="102" height="87" viewBox="0 0 102 87" fill="none" xmlns="http://www.w3.org/2000/svg">
<g filter="url(#filter0_di_22_5)">
<path d="M11 65.1982L5 11.6982C6.66667 7.53153 13.7838 1.09788 29.5 1.6982C34.5174 0.479056 40.5 0.93389 49.5 2.46214C58.5 2.46214 67.1924 1.57476 71.9333 6.6982C76.0507 5.63652 80.0725 5.42874 83.5 6.6982C94.3 10.6982 96.6667 23.6982 96.5 29.6982C94.6667 41.5315 90.8 65.1982 90 65.1982C89 65.1982 56 93.4621 11 65.1982Z" fill="white"/>
<path d="M29.5 1.6982C13.7838 1.09788 6.66667 7.53153 5 11.6982L11 65.1982C56 93.4621 89 65.1982 90 65.1982C90.8 65.1982 94.6667 41.5315 96.5 29.6982C96.6667 23.6982 94.3 10.6982 83.5 6.6982C80.0725 5.42874 76.0507 5.63652 71.9333 6.6982M29.5 1.6982C49.5 2.46214 36.5 21.4621 49.5 21.4621C66.5 21.4621 52 9.46214 71.9333 6.6982M29.5 1.6982C34.5174 0.479056 40.5 0.93389 49.5 2.46214C58.5 2.46214 67.1924 1.57476 71.9333 6.6982" stroke="black"/>
</g>
<g filter="url(#filter1_d_22_5)">
<path d="M36.5 18.5C42.1667 21 57 24.5 71 18.5" stroke="black"/>
</g>
<defs>
<filter id="filter0_di_22_5" x="0.48912" y="0.500107" width="100.519" height="85.7598" filterUnits="userSpaceOnUse" color-interpolation-filters="sRGB">
<feFlood flood-opacity="0" result="BackgroundImageFix"/>
<feColorMatrix in="SourceAlpha" type="matrix" values="0 0 0 0 0 0 0 0 0 0 0 0 0 0 0 0 0 0 127 0" result="hardAlpha"/>
<feOffset dy="4"/>
<feGaussianBlur stdDeviation="2"/>
<feComposite in2="hardAlpha" operator="out"/>
<feColorMatrix type="matrix" values="0 0 0 0 0 0 0 0 0 0 0 0 0 0 0 0 0 0 0.25 0"/>
<feBlend mode="normal" in2="BackgroundImageFix" result="effect1_dropShadow_22_5"/>
<feBlend mode="normal" in="SourceGraphic" in2="effect1_dropShadow_22_5" result="shape"/>
<feColorMatrix in="SourceAlpha" type="matrix" values="0 0 0 0 0 0 0 0 0 0 0 0 0 0 0 0 0 0 127 0" result="hardAlpha"/>
<feOffset dy="4"/>
<feGaussianBlur stdDeviation="2"/>
<feComposite in2="hardAlpha" operator="arithmetic" k2="-1" k3="1"/>
<feColorMatrix type="matrix" values="0 0 0 0 0.666667 0 0 0 0 0.638889 0 0 0 0 0.638889 0 0 0 0.25 0"/>
<feBlend mode="normal" in2="shape" result="effect2_innerShadow_22_5"/>
</filter>
<filter id="filter1_d_22_5" x="32.2982" y="18.0404" width="42.8988" height="12.2726" filterUnits="userSpaceOnUse" color-interpolation-filters="sRGB">
<feFlood flood-opacity="0" result="BackgroundImageFix"/>
<feColorMatrix in="SourceAlpha" type="matrix" values="0 0 0 0 0 0 0 0 0 0 0 0 0 0 0 0 0 0 127 0" result="hardAlpha"/>
<feOffset dy="4"/>
<feGaussianBlur stdDeviation="2"/>
<feComposite in2="hardAlpha" operator="out"/>
<feColorMatrix type="matrix" values="0 0 0 0 0 0 0 0 0 0 0 0 0 0 0 0 0 0 0.25 0"/>
<feBlend mode="normal" in2="BackgroundImageFix" result="effect1_dropShadow_22_5"/>
<feBlend mode="normal" in="SourceGraphic" in2="effect1_dropShadow_22_5" result="shape"/>
</filter>
</defs>
</svg>
